<svg xmlns="http://www.w3.org/2000/svg" version="1.1" xmlns:xlink="http://www.w3.org/1999/xlink" xmlns:svgjs="http://svgjs.dev/svgjs" width="1000" height="1000" viewBox="0 0 1000 1000"><rect width="1000" height="1000" fill="#1ebbd7"></rect><g transform="matrix(0.7,0,0,0.7,149.57575880683692,427.9780035402962)"><svg viewBox="0 0 396 82" data-background-color="#1ebbd7" preserveAspectRatio="xMidYMid meet" height="207" width="1000" xmlns="http://www.w3.org/2000/svg" xmlns:xlink="http://www.w3.org/1999/xlink"><g id="tight-bounds" transform="matrix(1,0,0,1,0.23999930356080768,-0.24221042307996754)"><svg viewBox="0 0 395.52 82.48442084615994" height="82.48442084615994" width="395.52"><g><svg viewBox="0 0 534.1347552429129 111.3920811590237" height="82.48442084615994" width="395.52"><g><rect width="4.326356010643666" height="96.72250172997715" x="122.96285993739049" y="7.334789714523275" fill="#ffffff" opacity="1" stroke-width="0" stroke="transparent" fill-opacity="1" class="rect-o-0" data-fill-palette-color="primary" rx="1%" id="o-0" data-palette-color="#ffffff"></rect></g><g transform="matrix(1,0,0,1,138.61475524291285,15.394998192021369)"><svg viewBox="0 0 395.52 80.60208477498097" height="80.60208477498097" width="395.52"><g id="textblocktransform"><svg viewBox="0 0 395.52 80.60208477498097" height="80.60208477498097" width="395.52" id="textblock"><g><svg viewBox="0 0 395.52 47.974123989218334" height="47.974123989218334" width="395.52"><g transform="matrix(1,0,0,1,0,0)"><svg width="395.52" viewBox="4.449999809265137 -35.70000076293945 296.7799987792969 36" height="47.974123989218334" data-palette-color="#ffffff"><path d="M7.95 0L4.45 0 4.45-35.5 7.95-35.5 7.95 0ZM28.9 0L16.85 0 16.85-35.5 28.9-35.5Q34.55-35.5 38.32-33.13 42.1-30.75 44-26.73 45.9-22.7 45.9-17.8L45.9-17.8Q45.9-12.4 43.82-8.4 41.75-4.4 37.92-2.2 34.1 0 28.9 0L28.9 0ZM42.4-17.8L42.4-17.8Q42.4-22.05 40.82-25.35 39.25-28.65 36.25-30.53 33.25-32.4 28.9-32.4L28.9-32.4 20.35-32.4 20.35-3.1 28.9-3.1Q33.3-3.1 36.3-5.05 39.3-7 40.85-10.33 42.4-13.65 42.4-17.8ZM59.94 0L74.79-35.5 77.74-35.5 92.49 0 88.79 0 84.19-11.1 68.24-11.1 63.69 0 59.94 0ZM68.99-13.85L83.39-13.85 76.24-31.4 68.99-13.85ZM93.94-18L93.94-18Q93.94-21.25 95.07-24.38 96.19-27.5 98.34-30.08 100.49-32.65 103.64-34.18 106.79-35.7 110.79-35.7L110.79-35.7Q115.54-35.7 118.92-33.52 122.29-31.35 123.89-27.95L123.89-27.95 121.14-26.25Q119.99-28.6 118.24-29.98 116.49-31.35 114.52-31.95 112.54-32.55 110.59-32.55L110.59-32.55Q107.39-32.55 104.94-31.28 102.49-30 100.82-27.88 99.14-25.75 98.29-23.13 97.44-20.5 97.44-17.8L97.44-17.8Q97.44-14.85 98.44-12.15 99.44-9.45 101.24-7.38 103.04-5.3 105.47-4.08 107.89-2.85 110.74-2.85L110.74-2.85Q112.74-2.85 114.84-3.55 116.94-4.25 118.77-5.7 120.59-7.15 121.69-9.45L121.69-9.45 124.59-7.95Q123.49-5.3 121.19-3.45 118.89-1.6 116.07-0.65 113.24 0.3 110.54 0.3L110.54 0.3Q106.89 0.3 103.84-1.28 100.79-2.85 98.57-5.48 96.34-8.1 95.14-11.38 93.94-14.65 93.94-18ZM126.24 0L141.09-35.5 144.04-35.5 158.79 0 155.09 0 150.49-11.1 134.54-11.1 129.99 0 126.24 0ZM135.29-13.85L149.69-13.85 142.54-31.4 135.29-13.85ZM175.94 0L163.89 0 163.89-35.5 175.94-35.5Q181.59-35.5 185.36-33.13 189.14-30.75 191.04-26.73 192.94-22.7 192.94-17.8L192.94-17.8Q192.94-12.4 190.86-8.4 188.79-4.4 184.96-2.2 181.14 0 175.94 0L175.94 0ZM189.44-17.8L189.44-17.8Q189.44-22.05 187.86-25.35 186.29-28.65 183.29-30.53 180.29-32.4 175.94-32.4L175.94-32.4 167.39-32.4 167.39-3.1 175.94-3.1Q180.34-3.1 183.34-5.05 186.34-7 187.89-10.33 189.44-13.65 189.44-17.8ZM203.13-3.1L223.48-3.1 223.48 0 199.63 0 199.63-35.5 223.03-35.5 223.03-32.4 203.13-32.4 203.13-19.6 220.48-19.6 220.48-16.65 203.13-16.65 203.13-3.1ZM265.03 0L261.53 0 261.53-28.9 248.68-6.45 246.48-6.45 233.58-28.9 233.58 0 230.08 0 230.08-35.5 233.68-35.5 247.53-11.2 261.48-35.5 265.03-35.5 265.03 0ZM270.28-35.5L274.13-35.5 285.73-16.4 297.43-35.5 301.23-35.5 287.48-13.2 287.48 0 283.98 0 283.98-13.3 270.28-35.5Z" opacity="1" transform="matrix(1,0,0,1,0,0)" fill="#ffffff" class="wordmark-text-0" data-fill-palette-color="primary" id="text-0"></path></svg></g></svg></g><g transform="matrix(1,0,0,1,0,59.29966328409704)"><svg viewBox="0 0 232.20979200000002 21.302421490883916" height="21.302421490883916" width="232.20979200000002"><g transform="matrix(1,0,0,1,0,0)"><svg width="232.20979200000002" viewBox="1.2999999523162842 -32.400001525878906 433.25 39.75" height="21.302421490883916" data-palette-color="url(#0932fe13-2c9a-41ff-89dd-b6c6acdb3e0c)"></svg></g></svg></g></svg></g></svg></g><g><svg viewBox="0 0 111.63732064251178 111.3920811590237" height="111.3920811590237" width="111.63732064251178"><g><svg xmlns="http://www.w3.org/2000/svg" data-name="Layer 1" viewBox="-0.1399998515844345 0.0017973555950447917 128.27999877929688 127.99819946289062" x="0" y="0" width="111.63732064251178" height="111.3920811590237" class="icon-icon-0" data-fill-palette-color="accent" id="icon-0"></svg></g></svg></g></svg></g><defs></defs><mask id="3dee06c5-2941-4490-83ab-7b9f24d4877c"><g id="SvgjsG1407"><svg viewBox="0 0 395.52 82.48442084615994" height="82.48442084615994" width="395.52"><g><svg viewBox="0 0 534.1347552429129 111.3920811590237" height="82.48442084615994" width="395.52"><g></g><g transform="matrix(1,0,0,1,138.61475524291285,15.394998192021369)"><svg viewBox="0 0 395.52 80.60208477498097" height="80.60208477498097" width="395.52"><g id="SvgjsG1405"><svg viewBox="0 0 395.52 80.60208477498097" height="80.60208477498097" width="395.52" id="SvgjsSvg1404"><g><svg viewBox="0 0 395.52 47.974123989218334" height="47.974123989218334" width="395.52"><g transform="matrix(1,0,0,1,0,0)"><svg width="395.52" viewBox="4.449999809265137 -35.70000076293945 296.7799987792969 36" height="47.974123989218334" data-palette-color="#ffffff"></svg></g></svg></g><g transform="matrix(1,0,0,1,0,59.29966328409704)"><svg viewBox="0 0 232.20979200000002 21.302421490883916" height="21.302421490883916" width="232.20979200000002"><g transform="matrix(1,0,0,1,0,0)"><svg width="232.20979200000002" viewBox="1.2999999523162842 -32.400001525878906 433.25 39.75" height="21.302421490883916" data-palette-color="url(#0932fe13-2c9a-41ff-89dd-b6c6acdb3e0c)"><path d="M9.95-23.7L9.95 0 1.7 0 1.7-23.7 9.95-23.7ZM2.35-25.6Q1.3-26.5 1.3-28.5 1.3-30.5 2.35-31.45 3.4-32.4 5.8-32.4 8.2-32.4 9.25-31.45 10.3-30.5 10.3-28.53 10.3-26.55 9.25-25.63 8.2-24.7 5.8-24.7 3.4-24.7 2.35-25.6ZM21.25-22.2L21.45-22.2Q24.2-24.55 27.5-24.55 30.8-24.55 32.12-23.03 33.45-21.5 33.45-18.45L33.45-18.45 33.45 0 24.95 0 24.95-15.6Q24.95-16.85 23.85-16.85L23.85-16.85Q22.45-16.85 21.5-16.15L21.5-16.15 21.5 0 13.1 0 13.1-23.95 20.75-23.95 21.25-22.2ZM36.05-12.08Q36.05-18.65 38.57-21.6 41.1-24.55 46.47-24.55 51.85-24.55 54.3-21.65 56.75-18.75 56.75-12.13 56.75-5.5 54.35-2.5 51.95 0.5 46.5 0.5 41.05 0.5 38.55-2.5 36.05-5.5 36.05-12.08ZM48.07-16.8Q47.75-17.8 46.45-17.8 45.15-17.8 44.8-16.8 44.45-15.8 44.45-12.6L44.45-12.6 44.45-11.4Q44.45-7.85 44.8-6.8 45.15-5.75 46.42-5.75 47.7-5.75 48.05-6.8 48.4-7.85 48.4-11.1L48.4-11.1 48.4-12.55Q48.4-15.8 48.07-16.8ZM71.74-23.95L79.89-23.95 74.79 0 62.99 0 57.84-23.95 66.64-23.95 68.79-8.6 69.44-8.6 71.74-23.95ZM99.44-17.7L99.44-17.7 99.19-7.35Q99.19-6.4 99.67-6.08 100.14-5.75 101.29-5.75L101.29-5.75 100.54 0.3Q97.64 0.5 97.34 0.5L97.34 0.5Q93.64 0.5 92.64-2.05L92.64-2.05 92.39-2.05Q90.54 0.5 86.69 0.5L86.69 0.5Q83.74 0.5 82.17-1.4 80.59-3.3 80.59-6.6L80.59-6.6Q80.59-10.75 83.17-12.35 85.74-13.95 91.29-14.45L91.29-14.45 91.29-15.65Q91.29-17.05 89.89-17.05L89.89-17.05Q87.49-17.05 82.39-15.6L82.39-15.6 81.14-22.9Q87.54-24.55 91.79-24.55 96.04-24.55 97.74-22.9 99.44-21.25 99.44-17.7ZM89.79-5.35L89.79-5.35Q91.64-5.35 91.64-7.3L91.64-7.3 91.64-9.75Q89.79-9.5 89.02-8.97 88.24-8.45 88.24-7.2L88.24-7.2Q88.24-5.35 89.79-5.35ZM101.89-16.88Q101.89-20.5 104.11-22.53 106.34-24.55 110.24-24.55 114.14-24.55 118.14-23.55L118.14-23.55 117.29-16.6Q112.19-17.75 110.44-17.75L110.44-17.75Q109.39-17.75 109.39-16.9L109.39-16.9Q109.39-16.35 110.54-15.9L110.54-15.9Q114.54-14.45 116.56-12.6 118.59-10.75 118.59-7.05 118.59-3.35 116.69-1.43 114.79 0.5 110.86 0.5 106.94 0.5 103.04-0.5L103.04-0.5 103.59-7.25Q108.59-5.9 110.06-5.9 111.54-5.9 111.54-6.6 111.54-7.3 110.44-7.7L110.44-7.7Q105.99-9.4 103.94-11.33 101.89-13.25 101.89-16.88ZM128.74-23.7L128.74 0 120.49 0 120.49-23.7 128.74-23.7ZM121.14-25.6Q120.09-26.5 120.09-28.5 120.09-30.5 121.14-31.45 122.19-32.4 124.59-32.4 126.99-32.4 128.04-31.45 129.09-30.5 129.09-28.53 129.09-26.55 128.04-25.63 126.99-24.7 124.59-24.7 122.19-24.7 121.14-25.6ZM164.33-5.75L163.58 0.3 160.23 0.5Q156.38 0.5 155.53-2.05L155.53-2.05 155.28-2.05Q153.63 0.5 150.23 0.5L150.23 0.5Q145.73 0.5 143.91-2.65 142.08-5.8 142.08-12.03 142.08-18.25 144.13-21.4 146.18-24.55 150.03-24.55L150.03-24.55Q152.68-24.55 154.13-23.3L154.13-23.3 154.13-32.05 162.48-32.05 162.48-7.35Q162.48-6.4 162.88-6.08 163.28-5.75 164.33-5.75L164.33-5.75ZM152.26-17.5Q151.18-17.5 150.83-16.23 150.48-14.95 150.48-12.58 150.48-10.2 150.53-9.35 150.58-8.5 150.76-7.63 150.93-6.75 151.31-6.43 151.68-6.1 152.56-6.1 153.43-6.1 154.38-6.55L154.38-6.55 154.38-16.9Q153.33-17.5 152.26-17.5ZM174.68-23.7L174.68 0 166.43 0 166.43-23.7 174.68-23.7ZM167.08-25.6Q166.03-26.5 166.03-28.5 166.03-30.5 167.08-31.45 168.13-32.4 170.53-32.4 172.93-32.4 173.98-31.45 175.03-30.5 175.03-28.53 175.03-26.55 173.98-25.63 172.93-24.7 170.53-24.7 168.13-24.7 167.08-25.6ZM185.08 2.2L185.08 2.2 190.23 2.2Q191.13 2.2 191.13 1.4L191.13 1.4 191.13 1.2Q191.13 0.45 190.23 0.45L190.23 0.45 185.08 0.45Q184.28 0.45 184.28 1.25L184.28 1.25 184.28 1.45Q184.28 2.2 185.08 2.2ZM187.08-24.55L187.08-24.55 198.88-24.55 198.88-18.95 195.28-18.95 195.28-18.7Q196.88-17.3 196.88-15.05L196.88-15.05Q196.88-7.05 187.83-7.05L187.83-7.05 185.43-7.05Q184.53-7.05 184.53-6.23 184.53-5.4 185.38-5.4L185.38-5.4 192.18-5.4Q197.93-5.4 197.93-0.4L197.93-0.4Q197.93 3.7 195.18 5.53 192.43 7.35 187.58 7.35 182.73 7.35 180.25 6.33 177.78 5.3 177.78 2.5L177.78 2.5Q177.78 0.95 179.73-0.1L179.73-0.1 179.73-0.3Q177.28-1.65 177.28-4.2L177.28-4.2Q177.28-7.2 181.13-8.75L181.13-8.75Q179.33-10.05 178.45-11.78 177.58-13.5 177.58-16.35L177.58-16.35Q177.58-20.3 180.15-22.43 182.73-24.55 187.08-24.55ZM189.28-14.95Q189.28-16.55 188.9-17.28 188.53-18 187.53-18 186.53-18 186.15-17.28 185.78-16.55 185.78-15.05L185.78-15.05Q185.78-12 187.58-12L187.58-12Q189.28-12 189.28-14.95L189.28-14.95ZM208.77-23.7L208.77 0 200.52 0 200.52-23.7 208.77-23.7ZM201.17-25.6Q200.12-26.5 200.12-28.5 200.12-30.5 201.17-31.45 202.22-32.4 204.62-32.4 207.02-32.4 208.07-31.45 209.12-30.5 209.12-28.53 209.12-26.55 208.07-25.63 207.02-24.7 204.62-24.7 202.22-24.7 201.17-25.6ZM225.67-6.6L225.42 0.05Q221.72 0.5 219 0.5 216.27 0.5 214.75-0.93 213.22-2.35 213.22-5.85L213.22-5.85 213.22-17.45 210.82-17.45 210.82-23.65 213.62-23.65 214.07-28.25 221.62-28.25 221.62-23.65 226.07-23.65 225.72-17.45 221.57-17.45 221.57-7.5Q221.57-6.45 222.57-6.45L222.57-6.45Q222.67-6.45 225.67-6.6L225.67-6.6ZM245.82-17.7L245.82-17.7 245.57-7.35Q245.57-6.4 246.04-6.08 246.52-5.75 247.67-5.75L247.67-5.75 246.92 0.3Q244.02 0.5 243.72 0.5L243.72 0.5Q240.02 0.5 239.02-2.05L239.02-2.05 238.77-2.05Q236.92 0.5 233.07 0.5L233.07 0.5Q230.12 0.5 228.54-1.4 226.97-3.3 226.97-6.6L226.97-6.6Q226.97-10.75 229.54-12.35 232.12-13.95 237.67-14.45L237.67-14.45 237.67-15.65Q237.67-17.05 236.27-17.05L236.27-17.05Q233.87-17.05 228.77-15.6L228.77-15.6 227.52-22.9Q233.92-24.55 238.17-24.55 242.42-24.55 244.12-22.9 245.82-21.25 245.82-17.7ZM236.17-5.35L236.17-5.35Q238.02-5.35 238.02-7.3L238.02-7.3 238.02-9.75Q236.17-9.5 235.39-8.97 234.62-8.45 234.62-7.2L234.62-7.2Q234.62-5.35 236.17-5.35ZM249.57-5.5L249.57-5.5 249.57-32.05 257.82-32.05 257.82-8.15Q257.82-7.3 258.19-6.95 258.57-6.6 259.52-6.6L259.52-6.6 258.87 0.5 256.12 0.5Q252.82 0.5 251.19-0.88 249.57-2.25 249.57-5.5ZM289.76-17.7L289.76-17.7 289.51-7.35Q289.51-6.4 289.99-6.08 290.46-5.75 291.61-5.75L291.61-5.75 290.86 0.3Q287.96 0.5 287.66 0.5L287.66 0.5Q283.96 0.5 282.96-2.05L282.96-2.05 282.71-2.05Q280.86 0.5 277.01 0.5L277.01 0.5Q274.06 0.5 272.49-1.4 270.91-3.3 270.91-6.6L270.91-6.6Q270.91-10.75 273.49-12.35 276.06-13.95 281.61-14.45L281.61-14.45 281.61-15.65Q281.61-17.05 280.21-17.05L280.21-17.05Q277.81-17.05 272.71-15.6L272.71-15.6 271.46-22.9Q277.86-24.55 282.11-24.55 286.36-24.55 288.06-22.9 289.76-21.25 289.76-17.7ZM280.11-5.35L280.11-5.35Q281.96-5.35 281.96-7.3L281.96-7.3 281.96-9.75Q280.11-9.5 279.34-8.97 278.56-8.45 278.56-7.2L278.56-7.2Q278.56-5.35 280.11-5.35ZM303.98-17.25Q302.51-17.25 302.01-15.93 301.51-14.6 301.51-11.8 301.51-9 301.98-7.75 302.46-6.5 303.98-6.5 305.51-6.5 307.96-7.05L307.96-7.05 308.86-0.65Q305.41 0.5 302.71 0.5L302.71 0.5Q297.96 0.5 295.53-2.7 293.11-5.9 293.11-11.65 293.11-17.4 295.61-20.98 298.11-24.55 302.86-24.55L302.86-24.55Q306.41-24.55 309.26-23.35L309.26-23.35 308.36-16Q305.46-17.25 303.98-17.25ZM328.81-17.7L328.81-17.7 328.56-7.35Q328.56-6.4 329.03-6.08 329.51-5.75 330.66-5.75L330.66-5.75 329.91 0.3Q327.01 0.5 326.71 0.5L326.71 0.5Q323.01 0.5 322.01-2.05L322.01-2.05 321.76-2.05Q319.91 0.5 316.06 0.5L316.06 0.5Q313.11 0.5 311.53-1.4 309.96-3.3 309.96-6.6L309.96-6.6Q309.96-10.75 312.53-12.35 315.11-13.95 320.66-14.45L320.66-14.45 320.66-15.65Q320.66-17.05 319.26-17.05L319.26-17.05Q316.86-17.05 311.76-15.6L311.76-15.6 310.51-22.9Q316.91-24.55 321.16-24.55 325.41-24.55 327.11-22.9 328.81-21.25 328.81-17.7ZM319.16-5.35L319.16-5.35Q321.01-5.35 321.01-7.3L321.01-7.3 321.01-9.75Q319.16-9.5 318.38-8.97 317.61-8.45 317.61-7.2L317.61-7.2Q317.61-5.35 319.16-5.35ZM354.5-5.75L353.75 0.3 350.4 0.5Q346.55 0.5 345.7-2.05L345.7-2.05 345.45-2.05Q343.8 0.5 340.4 0.5L340.4 0.5Q335.9 0.5 334.08-2.65 332.25-5.8 332.25-12.03 332.25-18.25 334.3-21.4 336.35-24.55 340.2-24.55L340.2-24.55Q342.85-24.55 344.3-23.3L344.3-23.3 344.3-32.05 352.65-32.05 352.65-7.35Q352.65-6.4 353.05-6.08 353.45-5.75 354.5-5.75L354.5-5.75ZM342.43-17.5Q341.35-17.5 341-16.23 340.65-14.95 340.65-12.58 340.65-10.2 340.7-9.35 340.75-8.5 340.93-7.63 341.1-6.75 341.48-6.43 341.85-6.1 342.73-6.1 343.6-6.1 344.55-6.55L344.55-6.55 344.55-16.9Q343.5-17.5 342.43-17.5ZM366.4-17.4L366.4-17.4Q365.1-17.4 364.7-16.53 364.3-15.65 364.3-13.85L364.3-13.85 368.65-13.85 368.65-15.05Q368.65-17.4 366.4-17.4ZM366.6-24.55L366.6-24.55Q371.75-24.55 373.98-22.08 376.2-19.6 376.2-15L376.2-15Q376.2-14.4 375.85-9.6L375.85-9.6 364.45-9.6Q364.45-5.85 367.9-5.85L367.9-5.85Q369.55-5.85 374.35-7L374.35-7 375.05-0.8Q370.85 0.5 366.65 0.5L366.65 0.5Q361.5 0.5 358.75-2.88 356-6.25 356-12.05L356-12.05Q356-24.55 366.6-24.55ZM398.3-21.75L398.8-22.2Q401.55-24.55 404.85-24.55 408.15-24.55 409.47-23.03 410.8-21.5 410.8-18.45L410.8-18.45 410.8 0 402.3 0 402.3-15.6Q402.3-16.85 401.2-16.85L401.2-16.85Q399.8-16.85 398.85-16.15L398.85-16.15 398.85 0 390.35 0 390.35-15.6Q390.35-16.85 389.25-16.85L389.25-16.85Q387.85-16.85 386.9-16.15L386.9-16.15 386.9 0 378.5 0 378.5-23.95 386.15-23.95 386.65-22.2 386.85-22.2Q389.6-24.55 393.37-24.55 397.15-24.55 398.3-21.75L398.3-21.75ZM426.35-23.95L434.55-23.95 428.35 0.7Q427.4 4.4 425.55 5.88 423.7 7.35 419.5 7.35L419.5 7.35 414.5 7.35 413.75 0.9 416.55 0.9Q418.25 0.9 418.25-0.45L418.25-0.45Q418.25-0.75 418.05-1.75L418.05-1.75 412.3-23.95 421.2-23.95 423.45-9 423.9-9 426.35-23.95Z" opacity="1" transform="matrix(1,0,0,1,0,0)" fill="white" class="slogan-text-1" id="SvgjsPath1402"></path></svg></g></svg></g></svg></g></svg></g><g><svg viewBox="0 0 111.63732064251178 111.3920811590237" height="111.3920811590237" width="111.63732064251178"><g><svg xmlns="http://www.w3.org/2000/svg" data-name="Layer 1" viewBox="-0.1399998515844345 0.0017973555950447917 128.27999877929688 127.99819946289062" x="0" y="0" width="111.63732064251178" height="111.3920811590237" class="icon-icon-0" data-fill-palette-color="accent" id="SvgjsSvg1401"></svg></g></svg></g></svg></g><defs></defs></svg></g></mask><linearGradient x1="0" x2="1" y1="0.578" y2="0.595" id="0932fe13-2c9a-41ff-89dd-b6c6acdb3e0c"><stop stop-color="#dede50" offset="0"></stop><stop stop-color="#559c49" offset="1"></stop></linearGradient><rect width="395.5199890136719" height="82.48442077636719" fill="url(#0932fe13-2c9a-41ff-89dd-b6c6acdb3e0c)" mask="url(#3dee06c5-2941-4490-83ab-7b9f24d4877c)" data-fill-palette-color="secondary"></rect><mask id="f31f5e88-7894-4aac-ae92-57dc18b883c2"><g id="SvgjsG1418"><svg viewBox="0 0 395.52 82.48442084615994" height="82.48442084615994" width="395.52"><g><svg viewBox="0 0 534.1347552429129 111.3920811590237" height="82.48442084615994" width="395.52"><g></g><g transform="matrix(1,0,0,1,138.61475524291285,15.394998192021369)"><svg viewBox="0 0 395.52 80.60208477498097" height="80.60208477498097" width="395.52"><g id="SvgjsG1416"><svg viewBox="0 0 395.52 80.60208477498097" height="80.60208477498097" width="395.52" id="SvgjsSvg1415"><g><svg viewBox="0 0 395.52 47.974123989218334" height="47.974123989218334" width="395.52"><g transform="matrix(1,0,0,1,0,0)"><svg width="395.52" viewBox="4.449999809265137 -35.70000076293945 296.7799987792969 36" height="47.974123989218334" data-palette-color="#ffffff"></svg></g></svg></g><g transform="matrix(1,0,0,1,0,59.29966328409704)"><svg viewBox="0 0 232.20979200000002 21.302421490883916" height="21.302421490883916" width="232.20979200000002"><g transform="matrix(1,0,0,1,0,0)"><svg width="232.20979200000002" viewBox="1.2999999523162842 -32.400001525878906 433.25 39.75" height="21.302421490883916" data-palette-color="url(#0932fe13-2c9a-41ff-89dd-b6c6acdb3e0c)"></svg></g></svg></g></svg></g></svg></g><g><svg viewBox="0 0 111.63732064251178 111.3920811590237" height="111.3920811590237" width="111.63732064251178"><g><svg xmlns="http://www.w3.org/2000/svg" data-name="Layer 1" viewBox="-0.1399998515844345 0.0017973555950447917 128.27999877929688 127.99819946289062" x="0" y="0" width="111.63732064251178" height="111.3920811590237" class="icon-icon-0" data-fill-palette-color="accent" id="SvgjsSvg1413"><path d="M38.93 84.33H20.65a6 6 0 1 0 0 4H41.47l-0.32-0.43Q40.52 87 40 86.15T38.93 84.33ZM15 88.33a2 2 0 1 1 2-2A2 2 0 0 1 15 88.33Z" fill="white"></path><path d="M121.42 57.71a6 6 0 0 0-5.47 3.54H109a2 2 0 0 0-1.66 0.89L99.93 73.25H91.78a21.83 21.83 0 0 1-0.65 4H101a2 2 0 0 0 1.66-0.89l7.41-11.11h5.55a6 6 0 1 0 5.79-7.54Zm0 8a2 2 0 1 1 2-2A2 2 0 0 1 121.42 65.71Z" fill="white"></path><path d="M122 115.72a6 6 0 0 0-5.77 4.56h-6.53l-7.38-11.37a2 2 0 0 0-1.66-0.91H77.55c-0.07 1.32-0.14 2.59-0.17 3.58 0 0.18 0 0.35 0 0.52H99.61L107 123.46a2 2 0 0 0 1.66 0.91h7.92A6 6 0 0 0 122 128a6.14 6.14 0 0 0 0-12.28Zm0 8.19a2 2 0 1 1 2-2A2 2 0 0 1 122 123.91Z" fill="white"></path><path d="M79.55 97.71H99.93l7.41 11.11a2 2 0 0 0 1.66 0.89h6.95a6 6 0 1 0-0.32-4h-5.55L102.66 94.6a2 2 0 0 0-1.66-0.89H81.79A33.22 33.22 0 0 0 79.55 97.71Zm41.87 7.54a2 2 0 1 1-2 2A2 2 0 0 1 121.42 105.25Z" fill="white"></path><path d="M7 113.25a6 6 0 0 0 5.47-3.54h6.95a2 2 0 0 0 1.66-0.89l7.41-11.11H47.88a30.59 30.59 0 0 0-2.42-4h-18a2 2 0 0 0-1.66 0.89l-7.41 11.11H12.79A6 6 0 1 0 7 113.25Zm0-8a2 2 0 1 1-2 2A2 2 0 0 1 7 105.25Z" fill="white"></path><path d="M19.42 46.25H12.47a6 6 0 1 0 0.32 4h5.55l7.41 11.11a2 2 0 0 0 1.66 0.89H37.54a27.58 27.58 0 0 1 1.86-4H28.49L21.08 47.14A2 2 0 0 0 19.42 46.25ZM7 50.71a2 2 0 1 1 2-2A2 2 0 0 1 7 50.71Z" fill="white"></path><path d="M7 69.71a6 6 0 0 0 5.79-4.46h5.55l7.41 11.11a2 2 0 0 0 1.66 0.89h9a26.86 26.86 0 0 1-0.52-4h-7.4L21.08 62.14a2 2 0 0 0-1.66-0.89H12.47A6 6 0 1 0 7 69.71Zm0-8a2 2 0 1 1-2 2A2 2 0 0 1 7 61.71Z" fill="white"></path><path d="M42 14a7 7 0 1 0-9.33 6.59V31A2 2 0 0 0 34 32.89l12.33 4.25 0.32 0.08V40a2 2 0 0 0 1.47 1.93L62 45.77v2.3A23.91 23.91 0 0 0 39.83 71.8a23.09 23.09 0 0 0 4.54 13.74c0.58 0.79 1.16 1.56 1.75 2.33 3 4 5.84 7.72 6.92 12.45 0.13 0.61 0.6 5.07 0.84 9.83a4 4 0 0 0 4 3.8l11.84 0h0a4 4 0 0 0 4-3.8c0.19-3.69 0.54-8.58 0.61-9.09 0.68-4.86 3.91-9.44 7-13.86 0.83-1.17 1.68-2.38 2.48-3.59 1.85-2.93 4-6.92 4-11.84A23.91 23.91 0 0 0 66 48.1V39.77l13.87-3.84A2 2 0 0 0 81.33 34V31.22l0.32-0.08L94 26.89A2 2 0 0 0 95.33 25V14.59a7 7 0 1 0-4 0.2v8.78L81.33 27V23.59a7 7 0 1 0-4 0.2v8.69L66 35.62V13.71a7 7 0 1 0-4 0V38.25a2 2 0 0 0 0.07 0.5 2 2 0 0 0-0.07 0.5v2.37L50.67 38.48V29.79a7 7 0 1 0-4-0.2V33l-10-3.45V20.79A7 7 0 0 0 42 14ZM90 8a3 3 0 1 1 3 3A3 3 0 0 1 90 8ZM76 17a3 3 0 1 1 3 3A3 3 0 0 1 76 17Zm-6.27 93l-11.84 0c-0.1-2-0.26-4.16-0.42-6l12.62 0C70 105.85 69.82 108.11 69.73 110ZM61 7a3 3 0 1 1 3 3A3 3 0 0 1 61 7Zm2.83 45a19.92 19.92 0 0 1 20 19.8c0 3-1 6-3.34 9.67-0.74 1.13-1.54 2.26-2.39 3.46C75 89.37 71.43 94.4 70.46 100L57 99.95c0-0.22-0.06-0.4-0.09-0.52-1.27-5.57-4.51-9.84-7.63-14-0.57-0.76-1.15-1.52-1.71-2.29A19.11 19.11 0 0 1 43.83 71.8 19.92 19.92 0 0 1 63.83 52ZM46 23a3 3 0 1 1 3 3A3 3 0 0 1 46 23ZM35 17a3 3 0 1 1 3-3A3 3 0 0 1 35 17Z" fill="white"></path><path d="M74 119a2 2 0 0 0-2-2H56a2 2 0 0 0 0 4H72A2 2 0 0 0 74 119Z" fill="white"></path><path d="M59 124a2 2 0 0 0 0 4H69a2 2 0 0 0 0-4Z" fill="white"></path><path d="M69.34 83.51a2 2 0 0 0-2.69 0.88 3.16 3.16 0 0 1-5.64 0 2 2 0 0 0-3.57 1.8 7.16 7.16 0 0 0 12.78 0A2 2 0 0 0 69.34 83.51Z" fill="white"></path><path d="M47.4 70a2 2 0 0 0 0.1 4h0A7.18 7.18 0 0 0 60.3 75.83l0.07-0.1a7.18 7.18 0 0 0 0.57-1.06l0 0a7.14 7.14 0 0 0 0.57-2.54 3.12 3.12 0 0 1 4.6 0 7.14 7.14 0 0 0 1.13 3.58 2 2 0 0 0 0.14 0.21 7.18 7.18 0 0 0 12.78-2 2 2 0 0 0 0.12-3.7 7.18 7.18 0 0 0-13.06-2.23 7.17 7.17 0 0 0-6.83 0A7.18 7.18 0 0 0 47.4 70ZM73.31 68.6a3.19 3.19 0 1 1-3.19 3.19A3.19 3.19 0 0 1 73.31 68.6Zm-19 0a3.19 3.19 0 1 1-3.19 3.19A3.19 3.19 0 0 1 54.36 68.6Z" fill="white"></path><path d="M111.67 92.33a6 6 0 1 0-5.65-8H88.11c-0.3 0.51-0.59 1-0.88 1.45-0.59 0.9-1.18 1.74-1.74 2.55H106A6 6 0 0 0 111.67 92.33Zm0-8a2 2 0 1 1-2 2A2 2 0 0 1 111.67 84.33Z" fill="white"></path><path d="M121.42 42.71a6 6 0 0 0-5.47 3.54H109a2 2 0 0 0-1.66 0.89L99.93 58.25H88.27a27.58 27.58 0 0 1 1.86 4H101a2 2 0 0 0 1.66-0.89l7.41-11.11h5.55a6 6 0 1 0 5.79-7.54Zm0 8a2 2 0 1 1 2-2A2 2 0 0 1 121.42 50.71Z" fill="white"></path><path d="M6 128a6 6 0 0 0 5.45-3.62h7.92a2 2 0 0 0 1.66-0.91l7.38-11.37H49.86c0-0.19 0-0.38 0-0.57 0-1.17-0.1-2.37-0.17-3.52H27.33a2 2 0 0 0-1.66 0.91l-7.38 11.37H11.75A6 6 0 0 0 6 115.72 6.14 6.14 0 0 0 6 128Zm0-8.19a2 2 0 1 1-2 2A2 2 0 0 1 6 119.81Z" fill="white"></path></svg></g></svg></g></svg></g><defs></defs><mask><g id="SvgjsG1412"><svg viewBox="0 0 395.52 82.48442084615994" height="82.48442084615994" width="395.52"><g><svg viewBox="0 0 534.1347552429129 111.3920811590237" height="82.48442084615994" width="395.52"><g></g><g transform="matrix(1,0,0,1,138.61475524291285,15.394998192021369)"><svg viewBox="0 0 395.52 80.60208477498097" height="80.60208477498097" width="395.52"><g id="SvgjsG1411"><svg viewBox="0 0 395.52 80.60208477498097" height="80.60208477498097" width="395.52" id="SvgjsSvg1410"><g><svg viewBox="0 0 395.52 47.974123989218334" height="47.974123989218334" width="395.52"><g transform="matrix(1,0,0,1,0,0)"><svg width="395.52" viewBox="4.449999809265137 -35.70000076293945 296.7799987792969 36" height="47.974123989218334" data-palette-color="#ffffff"></svg></g></svg></g><g transform="matrix(1,0,0,1,0,59.29966328409704)"><svg viewBox="0 0 232.20979200000002 21.302421490883916" height="21.302421490883916" width="232.20979200000002"><g transform="matrix(1,0,0,1,0,0)"><svg width="232.20979200000002" viewBox="1.2999999523162842 -32.400001525878906 433.25 39.75" height="21.302421490883916" data-palette-color="url(#0932fe13-2c9a-41ff-89dd-b6c6acdb3e0c)"></svg></g></svg></g></svg></g></svg></g><g><svg viewBox="0 0 111.63732064251178 111.3920811590237" height="111.3920811590237" width="111.63732064251178"><g><svg xmlns="http://www.w3.org/2000/svg" data-name="Layer 1" viewBox="-0.1399998515844345 0.0017973555950447917 128.27999877929688 127.99819946289062" x="0" y="0" width="111.63732064251178" height="111.3920811590237" class="icon-icon-0" data-fill-palette-color="accent" id="SvgjsSvg1408"></svg></g></svg></g></svg></g><defs></defs></svg></g></mask></svg></g></mask><linearGradient x1="0" x2="1" y1="0.578" y2="0.595" id="e2ebd93a-0cc0-4b2d-b405-44bfc9df1e37"><stop stop-color="#dede50" offset="0"></stop><stop stop-color="#559c49" offset="1"></stop></linearGradient><rect width="395.5199890136719" height="82.48442077636719" fill="url(#e2ebd93a-0cc0-4b2d-b405-44bfc9df1e37)" mask="url(#f31f5e88-7894-4aac-ae92-57dc18b883c2)" data-fill-palette-color="accent"></rect></svg><rect width="395.52" height="82.48442084615994" fill="none" stroke="none" visibility="hidden"></rect></g></svg></g></svg>